<svg width="130" height="109" viewBox="0 0 130 109" fill="none" xmlns="http://www.w3.org/2000/svg">
<path d="M14.003 0C17.0961 0.0507179 20.1917 0.0409615 23.2812 0.173556C25.3179 0.260962 27.3512 0.509143 29.3761 0.764305C32.2743 1.12952 35.185 1.45465 38.0506 2.00423C41.0705 2.5834 44.0677 3.32016 47.0317 4.14336C51.3084 5.33113 55.4234 6.98293 59.3145 9.12074C61.1463 10.1271 62.8287 11.4044 64.5953 12.5329C64.772 12.6458 65.1473 12.6863 65.2904 12.577C67.3291 11.0198 69.4909 9.66326 71.8258 8.60634C74.1936 7.53453 76.5683 6.46995 78.985 5.51641C83.0376 3.91743 87.2644 2.89377 91.5269 2.05534C94.0447 1.56007 96.599 1.22572 99.1496 0.928421C101.579 0.645303 104.021 0.443064 106.463 0.316149C109.597 0.15328 112.737 0.101175 115.942 0.0738425C116.006 22.3446 116.003 44.5428 115.997 66.741C115.995 72.557 115.982 78.3729 115.928 84.1974C115.819 84.3015 115.756 84.3972 115.623 84.4988C114.82 84.5474 114.087 84.5864 113.354 84.6332C110.145 84.8384 106.924 84.9292 103.732 85.2838C100.216 85.6744 96.7048 86.1903 93.2328 86.8644C88.3801 87.8065 83.6062 89.087 78.9829 90.8772C75.8038 92.1082 72.7277 93.5354 69.9192 95.4935C68.0867 96.7712 66.3061 98.1027 65.1512 100C64.1236 98.9667 63.2232 97.8917 62.1575 97.0188C57.4768 93.1851 51.9453 91.0424 46.2711 89.2258C41.0748 87.5623 35.7664 86.3528 30.3487 85.7056C26.6333 85.2617 22.9001 84.9589 19.1703 84.649C17.5046 84.5107 15.8274 84.51 14.1427 84.4263C14.1092 84.3807 14.0852 84.3592 14.0479 84.3397C14.0378 84.3379 14.0174 84.3384 14.0182 84.3022C14.0191 84.2659 14.0079 84.1941 14.0103 84.1428C14.0103 84.023 14.0078 83.9546 14.0117 83.8212C14.0133 83.4956 14.0087 83.2349 14.0076 82.9104C14.0086 82.6337 14.0061 82.4208 14.0102 82.1369C14.0118 80.8944 14.0067 79.723 14.0054 78.48C14.0054 74.6926 14.0018 70.9767 14.0052 67.2106C14.0074 67.0932 14.0026 67.026 14.0019 66.8873C14.0025 61.8796 13.9989 56.9434 14.0033 51.9444C14.0061 51.671 14.0009 51.4604 14 51.1841C14.0016 50.8554 13.999 50.5923 14.0042 50.26C14.0072 49.6795 14.0024 49.1682 14.0018 48.5853C14.0031 41.747 14.0001 34.9802 14.0047 28.1531C14.0071 27.9313 14.0019 27.7697 14.001 27.5366C14.0032 23.5965 14.0012 19.7281 14.006 15.8094C14.0084 15.692 14.0038 15.6248 14.0033 15.4861C14.0035 12.5643 13.9997 9.71408 14.0034 6.81254C14.0059 6.69255 14.0008 6.62383 14.0002 6.48868C14.0023 6.11165 13.9999 5.80103 14.0052 5.42203C14.0087 4.94119 14.0043 4.52874 14.004 4.05283C14.0059 3.77753 14.0037 3.56567 14.0085 3.28426C14.0103 2.70173 14.005 2.18877 14.0029 1.62517C14.0036 1.50699 14.0008 1.43943 14.0056 1.30356C14.0098 0.823494 14.0064 0.411747 14.003 0ZM60.1732 47.9791C60.1257 47.9014 60.0783 47.8238 60.0034 47.696C60.0034 47.696 59.993 47.6399 60.0248 47.5096C59.7315 46.6691 59.4381 45.8287 59.1113 44.9104C59.0959 44.856 59.0804 44.8018 59.1029 44.6325C59.019 44.4444 58.9351 44.2564 58.82 43.9889C58.8052 43.9339 58.7904 43.879 58.8067 43.6916C58.6153 43.1575 58.4239 42.6235 58.199 42.0115C58.1838 41.9571 58.1687 41.9028 58.19 41.7235C58.0911 41.496 57.9922 41.2685 57.8639 40.9897C57.8639 40.9897 57.8512 40.9319 57.8863 40.8144C57.7861 40.5841 57.686 40.3539 57.5575 40.0733C57.5575 40.0733 57.5468 40.0165 57.5823 39.9008C57.4959 39.7143 57.4096 39.5277 57.2913 39.2626C57.2764 39.2081 57.2616 39.1536 57.2801 38.973C57.0855 38.4376 56.8909 37.9021 56.6504 37.2579C56.2352 35.9775 55.791 34.7054 55.4186 33.4127C55.2621 32.8695 54.9954 32.7055 54.4508 32.7086C52.2159 32.7211 49.9806 32.69 47.7455 32.6801C47.5081 32.6791 47.2706 32.7117 46.9679 32.7334C47.2357 33.4999 47.4705 34.1663 47.7016 34.834C51.9453 47.0953 56.1934 59.3551 60.4172 71.6233C60.6275 72.2343 60.9088 72.4472 61.5474 72.4364C63.9854 72.3953 66.4242 72.4071 68.9305 72.4345C68.9763 72.417 69.0221 72.3995 69.1759 72.3547C69.3067 72.1497 69.482 71.9605 69.5615 71.7371C70.5099 69.0711 71.4559 66.4041 72.38 63.7296C75.7793 53.8914 79.1705 44.0504 82.5631 34.2098C82.723 33.7462 82.8671 33.277 83.0443 32.731C80.7405 32.731 78.5609 32.731 76.2775 32.6694C75.8623 32.7201 75.4471 32.7708 75.0233 32.8234C75.0233 32.8234 75.0144 32.8237 74.8991 32.8322C74.8474 33.0406 74.7956 33.249 74.7282 33.5129C74.7282 33.5129 74.6972 33.5615 74.5882 33.5817C74.4311 34.1462 74.274 34.7106 74.1051 35.334C74.1051 35.334 74.0785 35.3878 73.9652 35.417C73.9213 35.6794 73.8774 35.9418 73.8214 36.2624C73.8214 36.2624 73.7922 36.3142 73.682 36.3318C73.4262 37.2547 73.1705 38.1777 72.9031 39.1583C72.9031 39.1583 72.8742 39.2095 72.765 39.2286C72.5966 39.7832 72.4283 40.3378 72.2411 40.9571C72.2411 40.9571 72.2331 41.024 72.1312 41.06C71.7684 42.1767 71.381 43.2862 71.0512 44.4125C70.8169 45.213 70.6602 46.0363 70.4666 46.863C70.4666 46.863 70.4629 46.8762 70.3423 46.8735C70.2714 47.2198 70.2006 47.5661 70.1198 47.9767C70.1198 47.9767 70.0966 48.0375 69.9947 48.0656C69.7387 48.9338 69.4828 49.8019 69.2157 50.7309C69.2157 50.7309 69.1912 50.7877 69.0864 50.8153C68.7269 51.7075 68.1552 52.5412 68.3134 53.6379C68.3134 53.6379 68.2882 53.6921 68.1811 53.7161C68.1187 53.8167 68.0328 53.9097 67.9973 54.0191C67.2203 56.4146 66.4581 58.815 65.6637 61.2047C65.5728 61.4782 65.3072 61.6935 65.1226 61.9358C64.9352 61.7163 64.7094 61.5183 64.5712 61.2713C64.4284 61.0161 64.3869 60.7064 64.2725 60.4325C63.9904 59.7572 63.6919 59.0888 63.3738 58.3629C63.3738 58.3629 63.3638 58.303 63.3903 58.1808C63.2864 57.9063 63.1825 57.6318 63.0522 57.3054C63.0522 57.3054 63.0424 57.248 63.0743 57.124C62.9784 56.8949 62.8825 56.6659 62.7596 56.3831C62.7596 56.3831 62.7494 56.3239 62.7773 56.1945C62.6697 55.9287 62.5621 55.6629 62.4662 55.3906C62.4662 55.3906 62.4534 55.3867 62.478 55.2602C62.3698 54.9965 62.2616 54.7329 62.1251 54.4161C62.1251 54.4161 62.1154 54.3566 62.1528 54.2321C62.0569 54.0024 61.9609 53.7728 61.8382 53.4898C61.8382 53.4898 61.8282 53.431 61.8585 53.3078C61.7642 53.0781 61.6699 52.8485 61.5505 52.5624C61.5505 52.5624 61.5408 52.5014 61.5641 52.371C61.3516 51.7544 61.1391 51.1379 60.9286 50.5137C60.9286 50.5137 60.9244 50.507 60.9512 50.3813C60.8474 50.1144 60.7435 49.8476 60.6117 49.5287C60.6117 49.5287 60.6007 49.4707 60.634 49.3548C60.547 49.1689 60.4601 48.9831 60.3397 48.7193C60.3239 48.6651 60.3081 48.6108 60.3279 48.4467C60.2674 48.3283 60.2069 48.2099 60.1463 48.0804C60.1463 48.0804 60.1391 48.0719 60.1732 47.9791Z" fill="#FEFEFF"/>
<path d="M118.154 7C119.919 7.04198 121.684 7.1009 123.45 7.11532C123.959 7.11948 124.002 7.37283 124 7.77802C123.99 9.64904 123.998 11.5202 123.995 13.513C123.972 13.6975 123.953 13.7601 123.904 13.8744C123.864 14.2031 123.846 14.4803 123.846 14.7575C123.843 41.1806 123.842 67.6037 123.786 94.0403C123.62 94.0497 123.508 94.0457 123.348 94.0022C123.179 93.9471 123.056 93.9177 122.934 93.9177C113.028 93.9153 103.123 93.9144 93.2168 93.9207C93.0058 93.9208 92.7948 94.006 92.5277 94.0598C92.3585 94.065 92.2454 94.0618 92.1099 94.0259C92.0029 94.0159 91.9184 94.0385 91.7779 94.0906C91.5295 94.1508 91.3379 94.1978 91.1442 94.2097C88.4654 94.375 85.7747 94.4272 83.11 94.7212C78.5977 95.219 74.2148 96.3227 70 98C70.1272 97.801 70.2275 97.6168 70.3813 97.5213C73.7868 95.4073 77.376 93.6857 81.1612 92.3937C87.3052 90.2966 93.5607 88.6542 100.003 87.8405C103.66 87.3787 107.326 86.9734 110.997 86.6574C113.074 86.4786 115.171 86.4976 117.26 86.4999C117.967 86.5007 118.183 86.3265 118.181 85.5837C118.154 77.4422 118.165 69.3006 118.164 61.159C118.161 43.106 118.157 25.053 118.154 7Z" fill="#AFD0F8"/>
<path d="M119.046 7C120.844 7.04198 122.641 7.1009 124.439 7.11532C124.958 7.11948 125.002 7.37283 125 7.77802C124.99 9.64904 124.998 11.5202 124.995 13.513C124.971 13.6975 124.952 13.7601 124.902 13.8744C124.862 14.2031 124.843 14.4803 124.843 14.7575C124.84 41.1806 124.839 67.6037 124.782 94.0403C124.613 94.0497 124.499 94.0457 124.336 94.0022C124.163 93.9471 124.039 93.9177 123.914 93.9177C113.825 93.9153 103.736 93.9144 93.6467 93.9207C93.4318 93.9208 93.2169 94.006 92.9448 94.0598C92.7725 94.065 92.6573 94.0618 92.5193 94.0259C92.4104 94.0159 92.3243 94.0385 92.1812 94.0906C91.9282 94.1508 91.7331 94.1978 91.5358 94.2097C88.8074 94.375 86.0669 94.4272 83.3527 94.7212C78.7569 95.219 74.2929 96.3227 70 98C70.1296 97.801 70.2317 97.6168 70.3883 97.5213C73.8569 95.4073 77.5126 93.6857 81.3679 92.3937C87.6257 90.2966 93.997 88.6542 100.559 87.8405C104.283 87.3787 108.017 86.9734 111.756 86.6574C113.872 86.4786 116.008 86.4976 118.135 86.4999C118.855 86.5007 119.075 86.3265 119.073 85.5837C119.046 77.4422 119.057 69.3006 119.056 61.159C119.053 43.106 119.049 25.053 119.046 7Z" fill="#AFD0F8"/>
<path d="M11.9541 7C10.1563 7.04198 8.35864 7.1009 6.56066 7.11532C6.04166 7.11948 5.99791 7.37283 6.00007 7.77802C6.00993 9.64904 6.00184 11.5202 6.00493 13.513C6.02872 13.6975 6.04776 13.7601 6.09769 13.8744C6.13848 14.2031 6.15708 14.4803 6.15709 14.7575C6.15966 41.1806 6.16081 67.6037 6.21767 94.0403C6.38731 94.0497 6.50136 94.0457 6.66367 94.0022C6.83656 93.9471 6.96118 93.9177 7.0858 93.9177C17.1749 93.9153 27.2641 93.9144 37.3533 93.9207C37.5682 93.9208 37.7831 94.006 38.0552 94.0598C38.2275 94.065 38.3427 94.0618 38.4807 94.0259C38.5896 94.0159 38.6757 94.0385 38.8188 94.0906C39.0718 94.1508 39.2669 94.1978 39.4642 94.2097C42.1926 94.375 44.9331 94.4272 47.6473 94.7212C52.2431 95.219 56.7071 96.3227 61 98C60.8704 97.801 60.7683 97.6168 60.6117 97.5213C57.1431 95.4073 53.4874 93.6857 49.6321 92.3937C43.3743 90.2966 37.003 88.6542 30.4414 87.8405C26.717 87.3787 22.9832 86.9734 19.2438 86.6574C17.1279 86.4786 14.9921 86.4976 12.8653 86.4999C12.145 86.5007 11.9247 86.3265 11.9272 85.5837C11.954 77.4422 11.9432 69.3006 11.9444 61.159C11.947 43.106 11.9508 25.053 11.9541 7Z" fill="#AFD0F8"/>
<path d="M118.973 6.77172C118.976 24.9108 118.98 42.9768 118.983 61.0428C118.984 69.1903 118.973 77.3377 119 85.4851C119.002 86.2285 118.781 86.4028 118.059 86.402C115.926 86.3997 113.784 86.3807 111.662 86.5596C107.912 86.8759 104.168 87.2814 100.433 87.7436C93.8524 88.5578 87.4627 90.2014 81.187 92.3C77.3207 93.5929 73.6545 95.3158 70.176 97.4313C70.0189 97.5269 69.9165 97.7112 69.7506 97.9472C68.4676 98.658 67.2295 99.2902 65.9715 99.8809C65.7332 99.9928 65.3627 100.049 65.1441 99.9445C63.7107 99.2569 62.3023 98.5178 60.9249 97.7651C60.86 97.6008 60.7837 97.4209 60.6478 97.3398C56.8674 95.0847 52.8578 93.3241 48.6854 91.9257C42.6034 89.8872 36.3999 88.3466 30.0172 87.5987C26.5811 87.1961 23.1387 86.8242 19.6897 86.5602C17.4399 86.388 15.1731 86.3985 12.914 86.4031C12.1598 86.4046 11.9973 86.1711 12 85.4601C12.0256 78.733 12.0139 72.0057 12.0136 65.228C12.0138 65.1103 12.0134 65.0431 12.0143 64.9046C12.0145 56.1758 12.0134 47.5181 12.0132 38.7894C12.0114 28.0841 12.0087 17.4499 12.006 6.81569C12.006 6.81569 12.0055 6.74401 12.0542 6.6642C12.0722 5.50147 12.0414 4.41852 12.0107 3.33558C12.0095 3.22079 12.0082 3.10599 12.0548 2.89033C12.0725 2.11134 12.0423 1.4332 12.0122 0.755056C12.0108 0.686121 12.0095 0.617176 12.0734 0.489443C12.6558 0.393634 13.1924 0.264233 13.6805 0.365463C13.8735 0.405504 13.9525 0.961557 14.0993 1.27531C14.1221 1.32402 14.2304 1.33323 14.2991 1.36071C14.3018 1.42795 14.3046 1.4952 14.2455 1.62755C13.9702 2.25771 13.7574 2.8227 14.3024 3.33356C14.3047 3.54445 14.3069 3.75533 14.2475 4.04354C13.9678 4.58859 13.7769 5.05406 14.2984 5.46036C14.3008 5.76955 14.3033 6.07875 14.2576 6.461C14.1632 6.58289 14.117 6.63172 14.0707 6.68053C14.1461 6.72951 14.2215 6.77848 14.2969 6.82746C14.3007 9.66466 14.3045 12.5019 14.2716 15.4325C14.2566 15.6113 14.2784 15.6967 14.3002 15.782C14.3022 19.6328 14.3042 23.4835 14.2646 27.4381C14.2479 27.721 14.273 27.9001 14.298 28.0792C14.3011 34.815 14.3041 41.5507 14.2606 48.4018C14.2418 49.0426 14.2696 49.5681 14.2974 50.0936C14.3 50.3555 14.3026 50.6174 14.2626 50.9804C14.2454 51.309 14.2709 51.5364 14.2964 51.7639C14.2999 56.6775 14.3035 61.5911 14.2705 66.5983C14.2557 66.7771 14.2775 66.8624 14.2992 66.9476C14.3028 70.6465 14.3064 74.3453 14.2628 78.1608C14.2452 79.4603 14.2749 80.6433 14.3046 81.8262C14.3071 82.0381 14.3096 82.25 14.2677 82.5631C14.251 82.9417 14.2787 83.2192 14.3064 83.4967C14.3089 83.5649 14.3113 83.633 14.2857 83.7654C14.2779 83.8688 14.2982 83.9079 14.3184 83.947C14.3184 83.947 14.3389 83.9464 14.3482 83.9778C14.3777 84.0518 14.4108 84.0671 14.4568 84.0549C16.1327 84.1178 17.8137 84.1184 19.4833 84.2561C23.2218 84.5645 26.9637 84.866 30.6877 85.3078C36.1181 85.9521 41.4388 87.1561 46.6472 88.812C52.3345 90.6201 57.8789 92.7531 62.5705 96.5692C63.6387 97.4381 64.5412 98.5081 65.5712 99.5367C66.7288 97.6481 68.5135 96.3228 70.3503 95.0509C73.1653 93.1017 76.2486 91.6811 79.4351 90.4557C84.0691 88.6738 88.8541 87.3992 93.7181 86.4614C97.1982 85.7903 100.718 85.2767 104.242 84.888C107.441 84.535 110.67 84.4446 113.886 84.2404C114.62 84.1937 115.355 84.155 116.211 84.1065C116.392 83.9996 116.452 83.8989 116.512 83.7981C116.52 78.0088 116.533 72.2195 116.535 66.4302C116.542 44.3337 116.544 22.2372 116.553 0.0703811C117.288 0 118.017 0 118.973 0C118.973 2.28733 118.973 4.493 118.973 6.77172Z" fill="#96BDF0"/>
<path d="M5.81611 13C5.87745 13.0068 5.8588 13.0608 5.86592 13.1258C5.87306 13.1908 5.89233 13.2642 5.89233 13.2642C5.886 13.5271 5.87967 13.79 5.86817 14.1791C5.86961 14.4692 5.87622 14.6332 5.88285 14.7971C5.87495 15.4707 5.86705 16.1443 5.81434 16.9393C5.78732 17.7378 5.80513 18.4148 5.83435 19.1412C5.83835 19.2576 5.83092 19.3245 5.79728 19.4406C5.79206 19.8107 5.81304 20.1313 5.83402 20.452C5.84242 20.6799 5.85081 20.9078 5.81179 21.2514C5.75514 21.6468 5.73795 21.9266 5.73787 22.2063C5.73432 35.7295 5.73224 49.2526 5.6757 62.7624C5.56997 62.6966 5.47432 62.6448 5.47359 62.5917C5.45583 61.3016 5.44114 60.0115 5.44003 58.7213C5.4365 54.6219 5.43871 50.5224 5.43868 46.4229C5.43865 41.2255 5.43859 36.028 5.43859 30.8305C5.43858 28.289 5.43881 25.7475 5.43872 23.206C5.43862 20.2945 5.43826 17.383 5.43803 14.4715C5.43801 14.1992 5.43803 13.9269 5.43803 13.5229C5.00883 13.6008 4.68582 13.6153 4.39407 13.7192C1.66657 14.6907 0.432448 17.0755 0.431011 19.6174C0.416662 44.9527 0.42112 70.288 0.424078 95.6234C0.424476 99.1001 2.84498 101.544 6.27207 101.545C18.9132 101.546 31.5544 101.545 44.1955 101.545C47.1818 101.544 50.1681 101.543 53.1544 101.548C53.5151 101.549 53.9574 101.429 54 102C53.9002 101.997 53.8433 101.994 53.7864 101.991C53.7864 101.991 53.7595 102.005 53.7048 101.953C53.4494 101.887 53.2487 101.863 53.048 101.863C48.4987 101.859 43.9495 101.856 39.4002 101.856C27.9265 101.857 16.4529 101.859 4.97921 101.86C2.22767 101.256 0.435025 99.3373 0.0957703 96.5122C0.0763786 96.2626 0.0498398 96.1265 0.0233014 95.9904C0.0297806 89.5069 0.0450197 83.0235 0.0409412 76.5401C0.0323113 62.8076 0.010463 49.0751 0.000618879 35.3426C-0.00321876 29.9821 0.010667 24.6216 0.0457521 19.1535C0.0711227 18.9528 0.0672203 18.8596 0.0633178 18.7665C0.479834 15.528 2.55944 13.4185 5.81611 13Z" fill="#1764C9"/>
<path d="M124.103 13.2389C124.122 13.1757 124.141 13.1124 124.166 13C127.296 13.3234 129.315 15.2598 129.912 18.5918C129.914 24.7127 129.919 30.7008 129.928 36.6888C129.929 36.9914 129.97 37.2939 129.993 37.5964C129.99 37.8 129.986 38.0036 129.972 38.3165C129.973 38.458 129.984 38.4902 129.995 38.5225C129.991 38.726 129.986 38.9295 129.962 39.263C129.936 39.4948 129.924 39.5966 129.924 39.6984C129.925 52.1255 129.927 64.5526 129.932 76.9797C129.932 77.1803 129.976 77.3809 130 77.5815C129.996 77.6901 129.993 77.7987 129.969 78.03C129.939 84.3414 129.93 90.53 129.92 96.7187C129.401 99.4953 127.754 101.157 124.918 101.772C117.506 101.775 110.224 101.781 102.942 101.784C94.3498 101.787 85.7575 101.785 77.1652 101.801C76.8872 101.801 76.6096 101.973 76.3318 102.065C74.1344 106.475 70.5274 108.805 65.7243 108.989C61.2161 109.161 57.5544 107.325 55 103.391C55.0051 103.322 55.0404 103.29 55.0837 103.316C55.2691 103.446 55.458 103.519 55.5461 103.657C56.5419 105.223 57.9889 106.27 59.54 107.175C61.3445 108.227 63.365 108.646 65.3957 108.626C67.6446 108.604 69.8059 108.007 71.7403 106.726C73.4143 105.616 74.8051 104.24 75.6937 102.427C76.0322 101.737 76.3795 101.453 77.1575 101.454C92.2632 101.477 107.369 101.473 122.475 101.463C123.326 101.463 124.189 101.442 125.025 101.302C127.112 100.95 128.524 99.6653 129.234 97.7023C129.544 96.8444 129.6 95.8553 129.601 94.9255C129.622 78.8252 129.63 62.7249 129.609 46.6246C129.599 39.4426 129.513 32.2608 129.476 25.0788C129.472 24.2683 129.609 23.4569 129.602 22.6466C129.589 21.2481 129.547 19.8483 129.459 18.4527C129.319 16.2079 127.153 14.0602 125.188 13.4844C124.658 13.2954 124.304 13.3587 124.322 14.0669C124.323 39.876 124.322 65.6137 124.321 91.4043C124.321 91.5279 124.321 91.5985 124.323 91.7382C124.322 92.2685 124.322 92.7296 124.32 93.2433C124.32 93.3659 124.321 93.436 124.322 93.5652C124.272 93.8405 124.222 94.0566 124.166 94.2652C124.16 94.2576 124.149 94.2424 124.151 94.1727C124.154 67.3763 124.154 40.6494 124.153 13.9226C124.153 13.6947 124.121 13.4668 124.103 13.2389Z" fill="#1F66C3"/>
<path d="M13.999 0.980896C13.9306 1.01125 13.8336 1.00435 13.8132 0.967866C13.6817 0.732841 13.6109 0.316315 13.438 0.28632C13.0007 0.210491 12.5199 0.307422 12 0.340485C12.0928 0.233558 12.2317 0.0388413 12.3937 0.0244723C12.8809 -0.0187179 13.377 0.00838887 13.9332 0.00848599C13.9997 0.315919 14.0027 0.622935 13.999 0.980896Z" fill="#AECFF8"/>
<path d="M54 102.022C54.0347 101.993 54.1017 101.995 54.2744 102.016C54.5867 102.345 54.7933 102.655 55 102.965C55 102.965 54.9583 102.988 54.9379 103C54.6224 102.692 54.3274 102.373 54 102.022Z" fill="#1F66C3"/>
<path d="M57.257 39.4583C57.2719 39.5131 57.2867 39.568 57.3119 39.7145C57.4003 39.9979 57.4784 40.1896 57.5565 40.3813C57.5565 40.3813 57.5671 40.4385 57.5791 40.5185C57.6808 40.8331 57.7705 41.0677 57.8603 41.3023C57.8603 41.3023 57.8729 41.3604 57.8848 41.4407C57.9851 41.7555 58.0735 41.9899 58.1619 42.2244C58.1771 42.2791 58.1922 42.3338 58.2203 42.4861C58.4164 43.1265 58.5996 43.6693 58.7827 44.2122C58.7975 44.2675 58.8123 44.3227 58.8371 44.4701C58.9219 44.7552 58.9967 44.9482 59.0715 45.1412C59.0869 45.1958 59.1023 45.2505 59.1305 45.4032C59.4281 46.3513 59.7128 47.2013 59.9975 48.0514C59.9975 48.0514 60.0079 48.1078 60.0173 48.1785C60.0656 48.3281 60.1044 48.407 60.1433 48.486C60.1433 48.486 60.1505 48.4945 60.1499 48.5503C60.1982 48.7286 60.2472 48.8511 60.2961 48.9737C60.3119 49.0282 60.3277 49.0828 60.3547 49.2288C60.4452 49.5112 60.5246 49.7023 60.6039 49.8934C60.6039 49.8934 60.6149 49.9518 60.6257 50.0341C60.7332 50.3896 60.8301 50.6628 60.9269 50.936C60.9269 50.936 60.9311 50.9427 60.9299 51.0056C61.1331 51.6932 61.3375 52.3179 61.542 52.9426C61.542 52.9426 61.5517 53.004 61.5593 53.0872C61.6542 53.4062 61.7415 53.642 61.8288 53.8779C61.8288 53.8779 61.8389 53.937 61.8477 54.0185C61.9429 54.3364 62.0292 54.5728 62.1154 54.8092C62.1154 54.8092 62.1251 54.869 62.137 54.9516C62.2502 55.3046 62.3514 55.5751 62.4527 55.8456C62.4527 55.8456 62.4655 55.8495 62.4582 55.9081C62.5499 56.2406 62.649 56.5145 62.7481 56.7885C62.7481 56.7885 62.7583 56.8481 62.7673 56.9299C62.8643 57.2472 62.9524 57.4827 63.0404 57.7182C63.0404 57.7182 63.0503 57.776 63.0604 57.8588C63.1674 58.221 63.2643 58.5003 63.3612 58.7797C63.3612 58.7797 63.3712 58.84 63.3806 58.9273C63.9068 60.805 64.4235 62.5955 64.8845 64.3881C64.68 64.0817 64.4911 63.786 64.3886 63.4625C63.5539 60.8296 62.7413 58.1895 61.9105 55.5553C60.9695 52.5718 60.0169 49.592 59.0686 46.6109C57.753 42.4746 56.4278 38.3414 55.131 34.1992C54.9461 33.6086 54.6434 33.3928 54.0346 33.4041C52.2864 33.4363 50.5373 33.4136 48.7886 33.4164C47.898 33.4178 47.6571 33.7499 47.9435 34.6061C48.2419 35.4978 48.5684 36.3799 48.8704 37.2705C49.7426 39.8429 50.5966 42.4217 51.4814 44.9896C52.0765 46.7167 52.7302 48.4232 53.3248 50.1504C54.1843 52.6472 55.0055 55.1574 55.8596 57.6562C56.417 59.2868 57.0192 60.9018 57.5741 62.5332C58.6552 65.7114 59.7089 68.8991 60.806 72.0715C60.8789 72.2822 61.2211 72.5331 61.4412 72.5362C63.7977 72.569 66.1551 72.57 68.5115 72.5324C68.7408 72.5287 69.09 72.2549 69.1721 72.0285C69.8721 70.0969 70.5176 68.1454 71.1902 66.2037C72.2376 63.1795 73.3035 60.1619 74.3427 57.1348C75.2405 54.5194 76.11 51.8941 76.9957 49.2744C77.6471 47.3478 78.3141 45.4266 78.9559 43.4969C79.4839 41.9093 79.9538 40.3014 80.5076 38.7233C81.0206 37.2613 81.6148 35.8284 82.1651 34.3796C82.4147 33.7221 82.2466 33.4248 81.598 33.4204C79.748 33.4076 77.8978 33.4154 76.0477 33.4166C75.5422 33.4169 75.1949 33.601 75.0381 34.143C74.7424 35.1649 74.3939 36.1713 74.0738 37.1862C73.3473 39.4895 72.6598 41.8062 71.8867 44.0935C71.4546 45.3721 70.8829 46.6028 70.3768 47.7971C70.4014 47.5871 70.4233 47.4351 70.4452 47.283C70.4452 47.283 70.4489 47.2697 70.4863 47.2218C71.0864 45.2476 71.649 43.3213 72.2117 41.3949C72.2117 41.3949 72.2197 41.3276 72.2782 41.2687C72.5083 40.663 72.6799 40.1161 72.8515 39.5693C72.8515 39.5693 72.8803 39.5178 72.9211 39.4452C73.2303 38.4671 73.4989 37.5617 73.7675 36.6563C73.7675 36.6563 73.7967 36.6043 73.8357 36.5319C73.9342 36.2144 73.9937 35.9693 74.0532 35.7242C74.0532 35.7242 74.0797 35.6701 74.1231 35.5997C74.3345 34.9818 74.5026 34.4343 74.6706 33.8868C74.6706 33.8868 74.7015 33.8379 74.7431 33.7728C74.8522 33.5199 74.9197 33.3322 74.9872 33.1444C74.9872 33.1444 74.996 33.1442 75.0661 33.1388C75.5412 33.106 75.9462 33.0786 76.3511 33.0512C78.5261 33.0512 80.7011 33.0512 83 33.0512C82.8232 33.6006 82.6794 34.0726 82.5199 34.5391C79.1344 44.4398 75.7504 54.3411 72.3583 64.2395C71.4361 66.9304 70.4922 69.6137 69.5457 72.296C69.4664 72.5207 69.2915 72.7111 69.0735 72.9117C68.9402 72.9247 68.8943 72.9434 68.8485 72.9621C66.4152 72.9701 63.9814 72.9582 61.5486 72.9996C60.9114 73.0105 60.6307 72.7962 60.4208 72.1815C56.206 59.8383 51.9668 47.5035 47.7322 35.1671C47.5015 34.4953 47.2673 33.8248 47 33.0536C47.3021 33.0318 47.5391 32.999 47.776 33C50.0064 33.01 52.2369 33.0412 54.4671 33.0287C55.0105 33.0256 55.2767 33.1905 55.4328 33.7371C55.8044 35.0377 56.2477 36.3176 56.6807 37.7198C56.8853 38.3753 57.0711 38.9168 57.257 39.4583Z" fill="#2B6BC3"/>
<path d="M70.6583 47.4982C70.6583 47.4982 70.685 47.4344 70.733 47.3685C70.8441 47.183 70.9071 47.0633 71 47C70.9722 47.3174 70.9344 47.5837 70.8536 47.8387C70.2227 49.8303 69.6184 51.8297 68.9389 53.8077C67.8301 57.0353 66.6765 60.2503 65.5201 63.4642C65.4385 63.6909 65.1783 63.8646 65 64C65.5147 62.3685 66.0174 60.7963 66.5494 59.2323C67.2096 57.2913 67.8939 55.357 68.5677 53.4199C68.5677 53.4199 68.5969 53.3632 68.6463 53.2875C69.001 52.2672 69.3063 51.3228 69.6116 50.3783C69.6116 50.3783 69.6399 50.3188 69.6911 50.2442C70.0476 49.2792 70.3529 48.3887 70.6583 47.4982Z" fill="#2B6BC3"/>
<path d="M68 53C67.5623 54.986 67.0729 56.982 66.6008 58.985C66.2203 60.5989 65.8607 62.2212 65.4918 63.9097C65.4916 63.9797 65.4897 63.989 65.4553 63.9929C65.3752 63.9985 65.3293 64.0003 65.2821 64C65.2807 63.9978 65.2813 63.9915 65.2813 63.9915C64.8532 62.0684 64.4251 60.1453 64 58.158C64.2443 58.8191 64.4911 59.5414 64.7243 60.2711C64.8189 60.5672 64.8532 60.9018 64.9713 61.1777C65.0856 61.4446 65.2722 61.6586 65.4271 61.8958C65.5798 61.6339 65.7993 61.4012 65.8745 61.1056C66.5313 58.5232 67.1614 55.9292 67.8037 53.3405C67.8331 53.2222 67.9041 53.1217 68 53Z" fill="#B4D2F7"/>
<path d="M73 41C72.3883 42.9734 71.7158 44.9654 71 47C71.1849 46.1964 71.3717 45.3399 71.6512 44.507C72.0445 43.335 72.5066 42.1806 73 41Z" fill="#B4D2F7"/>
<path d="M74 36C73.7281 36.9777 73.3863 37.9651 73 39C73.2804 38.0349 73.6052 37.0223 74 36Z" fill="#B4D2F7"/>
<path d="M69 51C68.742 51.6495 68.4201 52.309 68.0533 53C67.8012 52.2722 68.498 51.6626 69 51Z" fill="#B4D2F7"/>
<path d="M70 48C69.7267 48.9733 69.3881 49.9629 69 51C69.2785 50.0371 69.6066 49.0267 70 48Z" fill="#B4D2F7"/>
<path d="M60 47C59.653 46.3832 59.3242 45.7147 59 45C59.3424 45.6186 59.6804 46.2835 60 47Z" fill="#B4D2F7"/>
<path d="M62 52C61.6541 51.7006 61.3268 51.3661 61 51C61.3399 51.3005 61.6792 51.6327 62 52Z" fill="#B4D2F7"/>
<path d="M59 44C58.646 43.4122 58.3197 42.7421 58 42C58.347 42.5912 58.6873 43.2545 59 44Z" fill="#B4D2F7"/>
<path d="M58 39C57.6447 38.4099 57.3186 37.7415 57 37C57.348 37.5918 57.6886 38.2568 58 39Z" fill="#B4D2F7"/>
<path d="M63 55C62.6382 54.7426 62.3155 54.406 62 54C62.3511 54.2606 62.6951 54.5907 63 55Z" fill="#B4D2F7"/>
<path d="M60.3064 98.2233C61.7153 99.0164 63.116 99.8278 64.5416 100.583C64.759 100.698 65.1274 100.636 65.3645 100.513C66.6156 99.8645 67.847 99.1703 69.1209 98.4515C73.4404 96.5065 77.8929 95.2938 82.4767 94.7469C85.1838 94.4238 87.9172 94.3665 90.6385 94.1849C90.8353 94.1718 91.0299 94.1201 91.3325 94.0659C91.507 94.0366 91.5746 94.0277 91.6422 94.0189C91.7571 94.0224 91.872 94.0258 92.114 94.0336C101.82 94.0376 111.399 94.0381 120.978 94.0354C121.786 94.0351 122.594 94.0124 123.402 94.0002C123.516 94.0046 123.629 94.0091 123.833 94.0094C123.923 94.0052 123.995 94 123.995 94C123.995 94 124.006 94.0166 123.996 94.09C123.706 94.2291 123.426 94.3506 123.146 94.3522C112.494 94.4168 101.841 94.4547 91.1893 94.5389C89.1252 94.5552 87.0621 94.7418 84.9989 94.8587C81.8733 95.0357 78.809 95.695 75.7855 96.5041C73.6692 97.0704 71.6087 97.9148 69.5584 98.74C68.3551 99.2244 67.1843 99.8437 66.0667 100.534C65.1673 101.09 64.7221 101.191 63.8402 100.603C63.3013 100.245 62.7732 99.8454 62.196 99.5802C59.2383 98.2212 56.2721 96.8802 53.0957 96.2339C50.8491 95.7769 48.6167 95.1784 46.3516 94.904C43.6522 94.5769 40.9253 94.3976 38.2093 94.3827C27.7282 94.3253 17.2467 94.3613 6.76544 94.3458C6.4866 94.3454 6.20802 94.1542 6 94.0424C15.5246 94.0293 24.9785 94.0264 34.4325 94.0217C36.1254 94.0209 37.8184 94.0128 39.5798 94.0184C40.1078 94.038 40.5674 94.0473 41.0797 94.0921C41.7578 94.1461 42.3832 94.1647 43.0768 94.1939C47.5838 94.564 51.9695 95.2731 56.2387 96.6923C57.6097 97.1481 58.9513 97.71 60.3064 98.2233Z" fill="#1764C9"/>
<path d="M6.1768 76.3738C6.17682 81.9919 6.18692 87.5394 6.15786 93.0867C6.15433 93.7615 6.41219 93.8579 7.00605 93.8571C17.6842 93.8423 28.3623 93.8459 39.0404 93.8486C39.3445 93.8487 39.6486 93.8812 40 93.9397C38.3398 93.9849 36.6321 93.9922 34.9245 93.993C25.3886 93.9972 15.8527 93.9999 6.21328 94C6.10982 93.9969 6.04179 93.9881 6.0338 93.9232C6.01354 93.5527 6.00127 93.2471 6 92.8712C6.01387 92.4483 6.01929 92.0957 6.01922 91.743C6.01574 75.797 6.0116 59.8509 6.00918 43.9048C6.00913 43.6032 6.02856 43.3016 6.03889 43C6.08321 43.2646 6.16472 43.529 6.16598 43.7938C6.17679 46.056 6.17305 48.3181 6.17318 50.7222C6.17377 52.8852 6.17485 54.9065 6.17595 56.9277C6.17535 56.9945 6.17477 57.0614 6.17351 57.2291C6.17365 57.3975 6.17447 57.4651 6.17528 57.5327C6.17504 58.7963 6.17479 60.0598 6.17392 61.463C6.17479 62.0619 6.17628 62.5212 6.17777 62.9804C6.17684 67.4213 6.17593 71.8621 6.1768 76.3738Z" fill="#96BDF0"/>
<path d="M5.34812 79.3687C5.34819 79.9321 5.34825 80.4954 5.30458 81.1749C5.28983 81.9756 5.31882 82.6602 5.34781 83.3448C5.34798 83.5071 5.34816 83.6694 5.30547 83.9366C5.29123 84.5234 5.31987 85.0054 5.3485 85.4873C5.34839 86.3046 5.3483 87.1218 5.30163 88.0372C5.0261 88.4084 4.86291 88.6732 5.34653 88.856C5.34695 90.3872 5.34738 91.9184 5.30528 93.5627C5.25819 94.027 4.95212 94.4609 5.53022 94.6524C5.53022 94.6524 5.59808 94.6613 5.63019 94.6732C5.94273 94.779 6.22307 94.9544 6.50365 94.9548C17.0508 94.969 27.598 94.9359 38.1449 94.9886C40.878 95.0023 43.622 95.1668 46.3384 95.467C48.6176 95.7188 50.8641 96.268 53.1247 96.6874C56.3211 97.2804 59.3059 98.511 62.2822 99.758C62.863 100.001 63.3945 100.368 63.9367 100.697C64.8242 101.236 65.2722 101.144 66.1772 100.634C67.3018 99.9999 68.48 99.4315 69.6908 98.9871C71.754 98.2298 73.8274 97.455 75.957 96.9353C78.9995 96.1929 82.0831 95.5879 85.2283 95.4254C87.3044 95.3182 89.3805 95.1469 91.4575 95.132C102.176 95.0546 112.896 95.0199 123.615 94.9607C123.897 94.9591 124.178 94.8477 124.476 94.7276C124.542 94.4519 124.593 94.2361 124.688 93.9538C124.703 93.7874 124.673 93.6874 124.643 93.5874C124.644 93.127 124.644 92.6665 124.689 92.1293C124.704 91.9519 124.674 91.8513 124.644 91.7507C124.644 66.0521 124.644 40.3535 124.697 14.5759C125.018 14.3458 125.288 14.1946 125.557 14.0434C127.505 14.5768 129.694 16.7213 129.836 18.9626C129.925 20.3561 129.968 21.7539 129.98 23.1501C129.987 23.9592 129.849 24.7694 129.853 25.5787C129.89 32.7498 129.978 39.9207 129.987 47.0918C130.009 63.1677 130 79.2436 129.98 95.3195C129.978 96.2479 129.922 97.2355 129.609 98.0921C128.891 100.052 127.464 101.335 125.355 101.686C124.509 101.827 123.637 101.847 122.777 101.847C107.509 101.857 92.2417 101.861 76.9742 101.838C76.1878 101.837 75.8369 102.12 75.4948 102.81C74.5966 104.62 73.1909 105.994 71.499 107.102C69.5438 108.382 67.3594 108.977 65.0864 108.999C63.034 109.02 60.9919 108.601 59.168 107.551C57.6003 106.647 56.1378 105.602 55.1313 104.038C55.0423 103.9 54.8514 103.827 54.664 103.698C54.4435 103.235 54.2667 102.798 54.0428 102.334C53.9096 101.737 53.4642 101.857 53.101 101.856C50.0939 101.851 47.0868 101.852 44.0797 101.853C31.3504 101.853 18.6211 101.854 5.89184 101.853C2.44086 101.852 0.00347987 99.4128 0.00307858 95.9427C0.000100877 70.6561 -0.0043888 45.3694 0.0100605 20.0828C0.0115072 17.5458 1.25423 15.1656 4.00074 14.196C4.29453 14.0923 4.61979 14.0778 5.05198 14C5.05198 14.4032 5.05196 14.675 5.05198 14.9468C5.05221 17.8527 5.05258 20.7586 5.05268 23.6645C5.05277 26.2012 5.05254 28.7378 5.05255 31.2744C5.05255 36.4619 5.0526 41.6494 5.05264 46.8368C5.05267 50.9284 5.05044 55.02 5.054 59.1116C5.05512 60.3993 5.06991 61.687 5.08779 62.9745C5.08853 63.0275 5.18484 63.0792 5.29131 63.1449C5.34655 63.2702 5.34711 63.3822 5.30577 63.5912C5.19622 63.9538 5.05736 64.2249 5.07772 64.4835C5.10753 64.8621 5.25143 65.2317 5.34671 65.6052C5.34713 66.675 5.34754 67.7448 5.28828 68.9028C5.17018 69.1461 5.06151 69.3009 5.06082 69.4562C5.05008 71.8715 5.04717 74.2869 5.06594 76.7021C5.06732 76.8789 5.2489 77.0543 5.3467 77.2304C5.34725 77.3913 5.34778 77.5522 5.30556 77.8175C5.29125 78.4042 5.31969 78.8865 5.34812 79.3687Z" fill="#0867EB"/>
<path d="M126 14.1569C125.722 14.4801 125.398 14.7337 125.011 15C124.925 13.9464 125.356 13.8404 126 14.1569Z" fill="#1764C9"/>
<path d="M70.908 47.5107C70.8818 47.4568 70.8862 47.4216 70.8968 47.4075C71.4244 46.1462 72.0052 44.9205 72.4444 43.647C73.2299 41.3689 73.9284 39.0615 74.6666 36.7673C74.9919 35.7565 75.346 34.7542 75.6464 33.7364C75.8057 33.1965 76.1586 33.0132 76.6723 33.0129C78.5521 33.0117 80.432 33.004 82.3118 33.0166C82.9708 33.0211 83.1416 33.3172 82.8879 33.972C82.3288 35.4151 81.7251 36.8422 81.2039 38.2983C80.6412 39.8701 80.1637 41.4715 79.6272 43.0528C78.975 44.9748 78.2973 46.8883 77.6355 48.8071C76.7355 51.4163 75.8521 54.0311 74.9398 56.636C73.8839 59.6509 72.8009 62.6564 71.7366 65.6684C71.0533 67.6024 70.3973 69.5461 69.6861 71.4699C69.6027 71.6954 69.2478 71.9682 69.0149 71.9718C66.6206 72.0092 64.2253 72.0083 61.8309 71.9755C61.6073 71.9725 61.2595 71.7226 61.1855 71.5127C60.0707 68.353 59.0001 65.1781 57.9016 62.0128C57.3378 60.3879 56.7259 58.7793 56.1595 57.1553C55.2917 54.6665 54.4573 52.1663 53.584 49.6795C52.9799 47.9593 52.3156 46.2596 51.711 44.5395C50.8119 41.9819 49.9442 39.4134 49.0579 36.8513C48.7511 35.9644 48.4193 35.0858 48.1162 34.1976C47.8251 33.3448 48.0699 33.0141 48.9748 33.0127C50.7517 33.0099 52.5289 33.0325 54.3052 33.0004C54.9237 32.9892 55.2313 33.2041 55.4192 33.7924C56.7368 37.918 58.0834 42.0346 59.4202 46.1543C60.3836 49.1235 61.3516 52.0913 62.3077 55.0628C63.1519 57.6864 63.9776 60.3159 64.8257 62.9383C64.9299 63.2605 65.1218 63.555 65.3296 63.8601C65.3862 63.858 65.3854 63.8638 65.401 63.9049C65.4915 63.9158 65.5666 63.8858 65.6417 63.8557C65.6417 63.8557 65.6441 63.847 65.6452 63.8425C65.8017 63.6481 66.03 63.4818 66.1016 63.2649C67.1159 60.1897 68.1277 57.1133 69.1002 54.0248C69.6962 52.1321 70.2262 50.219 70.7796 48.3133C70.8505 48.0692 70.8836 47.8145 70.908 47.5107Z" fill="#0A66EA"/>
</svg>
